<svg class="animate-icon-color" version="1.0" id="Layer_1" xmlns="http://www.w3.org/2000/svg" xmlns:xlink="http://www.w3.org/1999/xlink" x="0px" y="0px" viewBox="0 0 512 512" style="enable-background:new 0 0 512 512;" xml:space="preserve">
<g>
	<path class="st0" d="M509.3,338.2c-3.8-15.5-21.4-22-34.6-12.4c-15,10.9-30.9,20.3-48.2,27.1c-35.3,13.9-71.7,17-109,11
		c-6.7-1.1-11.7,2.9-11.3,9c0.3,4.8,3.3,7.6,9.8,8.6c38.5,6.2,76,2.8,112.6-10.6c19.7-7.3,37.9-17.3,54.8-29.9
		c2.1-1.5,4.2-3.3,6.9-1.2c2.9,2.2,1.9,4.8,0.6,7.3c-2.1,4.1-4.1,8.3-6.2,12.4c-47,88-146.3,138.3-245,123.9
		c-46-6.7-87.4-24.5-122.2-55.3c-67.5-59.6-95.4-134.7-81-223.5C48.4,131.9,88.2,76.7,150.9,38.3c6.9-4.2,14-7.9,21.3-11.2
		c2.5-1.1,4.6-1.3,6.4,1c1.7,2.2,0.7,4.2-0.7,6.1c-0.6,0.8-1.2,1.6-1.8,2.5c-37.7,52.7-50.4,110.9-37.5,174.3
		c10.8,52.8,38.6,95.3,80.8,128.5c18.9,14.8,39.9,25.9,62.7,33.5c7.1,2.4,12.4-0.3,13.3-6.7c0.6-4.5-2.1-7.9-8.3-10
		c-34.9-12.3-64.7-32-88.3-60.5C159,247.4,144.6,192,154.6,130.5c5.1-31.6,18.2-60.1,37.4-85.7c7.1-9.5,6.9-20.1,0-28.3
		c-6.8-8-17.1-9.9-27.5-5C135.6,24.9,110,42.9,87.9,65.9c-47.9,50.1-71.6,110-72.7,179c-0.3,16.9,1.5,33.6,4.8,50
		c11.6,57.1,39.1,105.2,82.8,143.7c44.6,39.3,96.8,60.6,156.1,64.1c35.1,2.1,69.4-2.8,102.4-15.2c66.9-25,115.5-70.1,146.3-134.4
		C509.9,348.4,510.6,343.4,509.3,338.2z"></path>
	<path class="st0" d="M252.1,164.9c21.2,1.5,34.8,15,36.6,36.3c0.5,5.9,3.7,9.5,8.6,9.6c5,0.1,8.6-3.8,8.9-9.9
		c0.2-3.8,0.8-7.5,2.1-11c5.3-14.8,18-24.1,33.8-24.9c6.4-0.3,9.7-3.3,9.8-8.8c0-5.1-3.1-8.2-8.7-8.7c-21.9-1.7-35.3-15-36.9-36.6
		c-0.4-5.6-4-9.5-8.8-9.5c-5,0-8.2,3.5-8.6,9.5c-1.8,21.4-15.6,35.1-37,36.6c-5.4,0.4-8.9,3.8-9,8.6
		C242.6,160.8,246.5,164.5,252.1,164.9z M295.8,142c1.3-2,2.2-1.3,3.3,0.2c3.8,5.3,8.6,9.7,14.4,13.9c-6.5,4.4-11.6,9.4-16,16.1
		c-4.7-6.2-9.7-11.6-16.3-16C286.9,151.8,292,147.6,295.8,142z"></path>
	<path class="st0" d="M42.6,435.2c-15.3-0.1-27.2,11.5-27.3,26.5c-0.1,15.4,12,27.7,27,27.6c14.8-0.1,26.7-12,26.8-26.8
		C69.1,447.2,57.6,435.4,42.6,435.2z M42.1,471.8c-5.4,0-9.5-4.5-9.4-10.1c0.2-5.2,4.4-9.2,9.8-9.1c5.2,0.1,9.2,4.3,9.1,9.7
		C51.5,467.7,47.3,471.9,42.1,471.8z"></path>
	<path class="st0" d="M374.7,276.6c14.6-0.1,27.1-12.8,26.9-27.5c-0.2-14.7-12.2-26.6-26.9-26.7c-15.1-0.1-27.2,11.8-27.2,26.7
		C347.4,264.5,359.6,276.8,374.7,276.6z M374.2,239.9c5.4-0.1,9.9,4.1,9.9,9.5c0.1,4.9-4.5,9.6-9.4,9.7c-5.4,0.1-9.8-4.2-9.8-9.7
		C364.9,244.2,368.9,240,374.2,239.9z"></path>
	<path class="st0" d="M367,103.1c6,0.1,11.1-5,11.2-11c0.1-5.9-5.1-11.1-11-11.1c-5.8,0-11,5.3-11,11.2
		C356.2,97.8,361.3,103,367,103.1z"></path>
	<path class="st0" d="M297.7,249.3c-6.2-0.2-11.1,4.6-11.1,10.9c0,6.2,4.9,11.2,11,11.1c5.7-0.1,10.7-5.1,10.7-11
		C308.4,254.5,303.5,249.5,297.7,249.3z"></path>
	<path class="st0" d="M23.7,391.2c0.1-6.2-4.9-11.3-11-11.2c-5.8,0.1-10.7,5-10.7,10.9c-0.1,6.1,5,11.3,11,11.2
		C18.9,402,23.7,397.1,23.7,391.2z"></path>
</g></svg>