<svg class="animate-zoom-in-out" width="135.22375mm" height="135.61789mm" viewBox="0 0 135.22375 135.61789" version="1.1" id="svg5" xml:space="preserve" xmlns:inkscape="http://www.inkscape.org/namespaces/inkscape" xmlns:sodipodi="http://sodipodi.sourceforge.net/DTD/sodipodi-0.dtd" xmlns="http://www.w3.org/2000/svg" xmlns:svg="http://www.w3.org/2000/svg"><sodipodi:namedview id="namedview7" pagecolor="#ffffff" bordercolor="#000000" borderopacity="0.25" inkscape:showpageshadow="2" inkscape:pageopacity="0.0" inkscape:pagecheckerboard="0" inkscape:deskcolor="#d1d1d1" inkscape:document-units="mm" showgrid="false"></sodipodi:namedview><defs id="defs2"></defs><g inkscape:label="Capa 1" inkscape:groupmode="layer" id="layer1" transform="translate(208.38866,-323.50005)"><path d="m -144.65332,323.76455 c -18.03294,2.36772 -33.95239,8.21534 -46.52174,22.11271 -26.60666,29.41743 -21.81545,77.20304 10.53841,100.42843 7.0911,5.09031 15.07887,8.77226 23.54791,10.8622 8.19415,2.02221 16.78279,2.47227 25.13542,1.34726 32.306414,-4.35213 57.303724,-31.98283 58.727174,-64.48372 1.42188,-32.46887 -22.06916,-62.57012 -53.964674,-68.9505 -5.55784,-1.11179 -11.79725,-2.06023 -17.4625,-1.31638 m 0.26458,15.83825 c 5.50333,-0.64968 11.35274,0.3311 16.66875,1.67754 6.02165,1.52519 11.9245,4.16851 16.93333,7.87175 23.978664,17.7278 28.926374,52.45859 9.59009,75.57101 -3.60654,4.31085 -7.94835,8.06317 -12.76509,10.95374 -6.54023,3.92457 -13.83189,6.44208 -21.43125,7.25858 -6.56325,0.70512 -12.92939,0.0291 -19.31458,-1.57718 -5.93434,-1.49251 -11.76364,-4.28069 -16.66875,-7.9375 -4.90061,-3.65389 -9.39059,-8.04307 -12.73571,-13.19556 -15.29146,-23.55295 -9.40173,-55.11218 13.52946,-71.46139 7.80362,-5.56366 16.8148,-8.05379 26.19375,-9.16099 m 2.64583,5.35638 c -5.25938,1.18843 -3.66501,9.33501 1.5875,8.18539 5.27659,-1.1549 3.65099,-9.36913 -1.5875,-8.18539 m -30.16249,12.4428 c -5.27341,1.38351 -2.68632,9.55622 2.64583,7.88168 4.95432,-1.55575 2.40453,-9.20698 -2.64583,-7.88168 m 59.53124,-0.007 c -5.21785,1.26683 -2.87099,9.16358 2.38125,7.95682 5.16837,-1.18745 2.84586,-9.22576 -2.38125,-7.95682 m -30.1625,3.20278 c -3.03318,0.87683 -3.70311,3.67771 -3.70416,6.44578 v 9.26042 c 0,1.26868 0.30797,3.02419 -0.15955,4.22195 -0.97975,2.50905 -4.33493,3.74254 -5.37289,6.62596 -2.83448,7.8748 3.5224,16.92143 12.14702,15.79854 2.22515,-0.28972 4.31086,-1.16867 6.08145,-2.54291 1.22661,-0.95171 2.03729,-2.51116 3.70813,-2.65668 4.513,-0.39317 9.22682,-0.0156 13.75834,-0.0156 2.00898,0 4.50082,0.39978 6.34973,-0.52917 3.83566,-1.92722 3.77613,-7.77425 -0.26432,-9.46467 -1.49251,-0.62442 -3.44249,-0.32491 -5.02708,-0.32491 h -10.05417 c -1.32027,0 -3.23188,0.3466 -4.47013,-0.15955 -1.13057,-0.46222 -1.6174,-2.0992 -2.32463,-3.01545 -0.95594,-1.23878 -2.47835,-1.98808 -3.36444,-3.22369 -0.80222,-1.11892 -0.42413,-3.14245 -0.42413,-4.44923 0,-4.81621 1.98226,-18.53194 -6.87917,-15.97078 m -41.27499,26.43055 c -5.34607,1.17026 -3.69057,9.3398 1.5875,8.18462 5.27209,-1.15411 3.66104,-9.33344 -1.5875,-8.18462 m 84.137494,0 c -5.272094,1.15412 -3.661044,9.33345 1.5875,8.18462 5.31654,-1.16363 3.67374,-9.33608 -1.5875,-8.18462 m -72.495834,29.92966 c -5.06465,1.59041 -2.21615,9.42631 2.91042,7.81658 5.0755,-1.59358 2.25557,-9.43901 -2.91042,-7.81658 m 59.53125,0 c -5.08767,1.59782 -2.25452,9.55834 2.91015,7.80335 5.03634,-1.71132 2.21985,-9.4144 -2.91015,-7.80335 m -29.10417,12.13908 c -5.27182,1.15411 -3.66474,9.30116 1.5875,8.2214 5.28479,-1.08664 3.67057,-9.37234 -1.5875,-8.2214 z" id="path408"></path></g></svg>